<svg width="18" height="19" viewBox="0 0 18 19" fill="none" xmlns="http://www.w3.org/2000/svg">
<path d="M5 6.23077V4.92308C5 3.88261 5.42143 2.88476 6.17157 2.14904C6.92172 1.41332 7.93913 1 9 1C10.0609 1 11.0783 1.41332 11.8284 2.14904C12.5786 2.88476 13 3.88261 13 4.92308V6.23077M1.66667 6.23077C1.48986 6.23077 1.32029 6.29966 1.19526 6.42228C1.07024 6.5449 1 6.7112 1 6.88462V15.7115C1 16.9473 2.07333 18 3.33333 18H14.6667C15.9267 18 17 16.9984 17 15.7626V6.88462C17 6.7112 16.9298 6.5449 16.8047 6.42228C16.6797 6.29966 16.5101 6.23077 16.3333 6.23077H1.66667Z" stroke="#363636" stroke-width="1.5" stroke-linecap="round" stroke-linejoin="round"/>
</svg>
