<svg xmlns="http://www.w3.org/2000/svg">
<symbol id="arrow1" viewBox="0 0 11 9">
  <path d="M5.048 7.892a.54.54 0 0 0 .89 0L10.815.85A.542.542 0 0 0 10.37 0H.619a.543.543 0 0 0-.446.85l4.875 7.042Z"/>
</symbol>
<symbol id="arrow2" viewBox="0 0 13 13">
  <path d="M1.5 7.25a.75.75 0 0 1 0-1.5v1.5Zm10.53-1.28a.75.75 0 0 1 0 1.06l-4.773 4.773a.75.75 0 1 1-1.06-1.06L10.439 6.5 6.197 2.257a.75.75 0 0 1 1.06-1.06L12.03 5.97ZM1.5 6.5v-.75h10v1.5h-10V6.5Z"/>
</symbol>
<symbol id="close" viewBox="0 0 10 10">
  <path stroke="currentColor" stroke-linecap="round" stroke-linejoin="round" stroke-width="1.5" d="m1.464 1.465 7.072 7.071m0-7.07-7.072 7.07"/>
</symbol>
<symbol id="instagram" viewBox="0 0 20 20">
  <path d="M11.029 0c1.125.003 1.696.009 2.189.023l.194.007c.224.008.445.018.712.03 1.064.05 1.79.218 2.427.465.66.254 1.216.598 1.772 1.153.508.5.901 1.105 1.153 1.772.247.637.415 1.363.465 2.428.012.266.022.487.03.712l.006.194c.015.492.02 1.063.023 2.188v2.056c.003.73-.005 1.459-.022 2.188l-.006.194c-.008.225-.018.446-.03.712-.05 1.065-.22 1.79-.466 2.428a4.883 4.883 0 0 1-1.153 1.772c-.5.508-1.105.902-1.772 1.153-.637.247-1.363.415-2.427.465l-.712.03-.194.006c-.493.014-1.064.021-2.19.023l-.745.001h-1.31c-.73.003-1.459-.005-2.188-.023l-.194-.006c-.238-.009-.475-.02-.712-.031-1.064-.05-1.79-.218-2.428-.465a4.89 4.89 0 0 1-1.771-1.153A4.903 4.903 0 0 1 .526 16.55C.279 15.913.11 15.187.06 14.122a74.098 74.098 0 0 1-.03-.712l-.005-.194A79.048 79.048 0 0 1 0 11.028V8.972a78.82 78.82 0 0 1 .022-2.188L.03 6.59c.008-.225.018-.446.03-.712.05-1.065.218-1.79.465-2.428A4.88 4.88 0 0 1 1.68 1.678 4.897 4.897 0 0 1 3.45.525C4.089.278 4.814.11 5.879.06c.266-.012.488-.022.712-.03l.194-.006A79 79 0 0 1 8.973.001L11.029 0ZM10 5a5 5 0 1 0 0 10 5 5 0 0 0 0-10Zm0 2a3 3 0 1 1 0 6 3 3 0 0 1 .002-6m5.25-3.5a1.25 1.25 0 1 0 0 2.5 1.25 1.25 0 0 0 0-2.5Z"/>
</symbol>
<symbol id="telegram" viewBox="0 0 21 18">
  <path d="M18.775.43a1.5 1.5 0 0 1 2.062 1.626l-2.268 13.757c-.22 1.327-1.676 2.088-2.893 1.427-1.018-.553-2.53-1.405-3.89-2.294-.68-.445-2.763-1.87-2.507-2.884.22-.867 3.72-4.125 5.72-6.062.785-.761.427-1.2-.5-.5-2.302 1.738-5.998 4.381-7.22 5.125-1.078.656-1.64.768-2.312.656-1.226-.204-2.363-.52-3.291-.905C.422 9.856.483 8.132 1.675 7.63l17.1-7.2Z"/>
</symbol>
<symbol id="whatsapp" viewBox="0 0 20 20">
  <path d="M10 0c5.523 0 10 4.477 10 10s-4.477 10-10 10a9.95 9.95 0 0 1-5.03-1.355L.004 20l1.352-4.968A9.95 9.95 0 0 1 0 10C0 4.477 4.477 0 10 0ZM6.592 5.3l-.2.008a1 1 0 0 0-.372.1 1.3 1.3 0 0 0-.294.228c-.12.113-.188.211-.261.306a2.73 2.73 0 0 0-.566 1.678c.002.49.13.967.33 1.413.409.902 1.082 1.857 1.97 2.742.214.213.424.427.65.626a9.45 9.45 0 0 0 3.84 2.046l.568.087c.185.01.37-.004.556-.013a2 2 0 0 0 .833-.231c.13-.068.259-.141.383-.22 0 0 .042-.029.125-.09.135-.1.218-.171.33-.288.084-.087.154-.187.21-.302.078-.163.156-.474.188-.733.024-.198.017-.306.014-.373-.004-.107-.093-.218-.19-.265l-.582-.261s-.87-.379-1.402-.621a.502.502 0 0 0-.176-.041.48.48 0 0 0-.378.127c-.005-.002-.072.055-.795.931a.35.35 0 0 1-.368.13 1.4 1.4 0 0 1-.191-.066c-.124-.052-.167-.072-.252-.108a6 6 0 0 1-1.575-1.003c-.126-.11-.243-.23-.363-.346a6.3 6.3 0 0 1-1.02-1.268l-.059-.095a1 1 0 0 1-.102-.205c-.038-.147.061-.265.061-.265s.243-.266.356-.41c.11-.14.203-.276.263-.373.118-.19.155-.385.093-.536-.28-.684-.57-1.364-.868-2.041-.059-.134-.234-.23-.393-.249a3.001 3.001 0 0 0-.565-.012l.202-.007Z"/>
</symbol>
</svg>